<svg width="18" height="18" viewBox="0 0 18 18" fill="none" xmlns="http://www.w3.org/2000/svg">
<path fill-rule="evenodd" clip-rule="evenodd" d="M11.7709 10.8522H11.0143L10.7305 10.5685C11.6764 9.52808 11.7709 7.92072 11.7709 6.40742C11.7709 3.0025 9.50099 1 6.09606 1C2.69113 1 0.5 3.11232 0.5 6.51724C0.5 9.92217 2.69113 12.2709 6.09606 12.2709C7.60936 12.2709 9.02808 12.1764 10.0685 11.2305L10.3522 11.5143V12.2709L15.0813 17L16.5 15.5813L11.7709 10.8522ZM6.09606 10.8522C3.73153 10.8522 1.8399 8.9606 1.8399 6.59607C1.8399 4.23154 3.73153 2.33991 6.09606 2.33991C8.46059 2.33991 10.3522 4.23154 10.3522 6.59607C10.3522 8.9606 8.46059 10.8522 6.09606 10.8522V10.8522Z" fill="#11998E"/>
<path d="M11.7709 10.8522L12.1245 10.4987L11.978 10.3522H11.7709V10.8522ZM11.0143 10.8522L10.6607 11.2058L10.8072 11.3522H11.0143V10.8522ZM10.7305 10.5685L10.3606 10.2321L10.0399 10.5849L10.377 10.922L10.7305 10.5685ZM11.7709 6.40742H11.2709H11.7709ZM10.0685 11.2305L10.422 10.877L10.0849 10.5399L9.73214 10.8606L10.0685 11.2305ZM10.3522 11.5143H10.8522V11.3072L10.7058 11.1607L10.3522 11.5143ZM10.3522 12.2709H9.85222V12.478L9.99866 12.6245L10.3522 12.2709ZM15.0813 17L14.7277 17.3536L15.0813 17.7071L15.4348 17.3536L15.0813 17ZM16.5 15.5813L16.8536 15.9348L17.2071 15.5813L16.8536 15.2277L16.5 15.5813ZM11.7709 10.3522H11.0143V11.3522H11.7709V10.3522ZM11.3678 10.4987L11.0841 10.2149L10.377 10.922L10.6607 11.2058L11.3678 10.4987ZM11.1005 10.9048C11.6557 10.2941 11.9437 9.53574 12.096 8.76182C12.2478 7.99012 12.2709 7.16887 12.2709 6.40742H11.2709C11.2709 7.15928 11.2467 7.89835 11.1148 8.56876C10.9834 9.23694 10.7512 9.80246 10.3606 10.2321L11.1005 10.9048ZM12.2709 6.40742C12.2709 4.58917 11.6615 3.09657 10.5514 2.06122C9.44578 1.03005 7.89494 0.5 6.09606 0.5V1.5C7.7021 1.5 8.98871 1.97119 9.86932 2.79251C10.7454 3.60964 11.2709 4.82075 11.2709 6.40742H12.2709ZM6.09606 0.5C4.28958 0.5 2.75567 1.06216 1.67126 2.12462C0.585581 3.18833 0 4.70506 0 6.51724H1C1 4.92449 1.50999 3.68261 2.3711 2.83892C3.23349 1.99399 4.49761 1.5 6.09606 1.5V0.5ZM0 6.51724C0 8.32774 0.584125 9.89726 1.66068 11.0174C2.73935 12.1397 4.27427 12.7709 6.09606 12.7709V11.7709C4.51292 11.7709 3.24981 11.2277 2.38168 10.3245C1.51144 9.419 1 8.11167 1 6.51724H0ZM6.09606 12.7709C7.59484 12.7709 9.20517 12.6911 10.4048 11.6005L9.73214 10.8606C8.85099 11.6616 7.62388 11.7709 6.09606 11.7709V12.7709ZM9.71492 11.5841L9.99866 11.8678L10.7058 11.1607L10.422 10.877L9.71492 11.5841ZM9.85222 11.5143V12.2709H10.8522V11.5143H9.85222ZM9.99866 12.6245L14.7277 17.3536L15.4348 16.6464L10.7058 11.9174L9.99866 12.6245ZM15.4348 17.3536L16.8536 15.9348L16.1464 15.2277L14.7277 16.6464L15.4348 17.3536ZM16.8536 15.2277L12.1245 10.4987L11.4174 11.2058L16.1464 15.9348L16.8536 15.2277ZM6.09606 10.3522C4.00767 10.3522 2.3399 8.68446 2.3399 6.59607H1.3399C1.3399 9.23674 3.45539 11.3522 6.09606 11.3522V10.3522ZM2.3399 6.59607C2.3399 4.50768 4.00767 2.83991 6.09606 2.83991V1.83991C3.45539 1.83991 1.3399 3.95539 1.3399 6.59607H2.3399ZM6.09606 2.83991C8.18445 2.83991 9.85222 4.50768 9.85222 6.59607H10.8522C10.8522 3.95539 8.73674 1.83991 6.09606 1.83991V2.83991ZM9.85222 6.59607C9.85222 8.68446 8.18445 10.3522 6.09606 10.3522V11.3522C8.73674 11.3522 10.8522 9.23674 10.8522 6.59607H9.85222Z" fill="#11998E"/>
</svg>
